#!OML:ASF F:\VICON\USERDATA\INSTALL\Justin_Nancy\Justin_Nancy.ASF
:FULLY-SPECIFIED
:DEGREES
143
root 1.64896 17.2871 1.05947 10.9314 86.9554 -5.8479
lowerback 14.1462 -0.661885 -8.28193
upperback 0.0610318 -2.00272 2.52801
thorax -7.52441 -0.598726 7.85589
lowerneck -23.2195 -2.33435 -5.63722
upperneck 11.1075 -2.27074 5.35702
head 7.28902 -0.801152 2.39927
rclavicle -1.97294e-014 3.85642e-014
rhumerus -55.6829 8.59531 -86.2618
rradius 117.462
rwrist -11.9323
rhand -9.68943 31.3173
rfingers 7.12502
rthumb 16.2827 1.98094
lclavicle -1.97294e-014 3.85642e-014
lhumerus -34.9038 -22.0874 100.765
lradius 113.547
lwrist 18.2909
lhand -19.9383 5.35605
lfingers 7.12502
lthumb 6.3994 35.2394
rfemur -51.5684 -8.13826 14.4996
rtibia 65.0247
rfoot -12.3231 0.683104
rtoes -11.0431
lfemur -3.94723 0.311668 -31.501
ltibia 28.7844
lfoot 12.2763 -12.305
ltoes -10.3897
144
root 2.02266 17.3489 1.10922 15.7863 86.8726 -0.786204
lowerback 13.7491 -0.781735 -8.57725
upperback -0.0566958 -2.19936 2.3544
thorax -7.38758 -0.693006 7.85636
lowerneck -23.0138 -2.31529 -5.81476
upperneck 11.3367 -2.30674 5.9141
head 7.34541 -0.774603 2.6119
rclavicle 3.62285e-014 9.74045e-015
rhumerus -55.6386 8.54651 -86.3743
rradius 117.027
rwrist -10.0598
rhand -11.6053 30.6723
rfingers 7.12502
rthumb 14.4373 1.1945
lclavicle 3.62285e-014 9.74045e-015
lhumerus -35.6373 -21.053 100.312
lradius 111.989
lwrist 17.2064
lhand -20.8007 4.88563
lfingers 7.12502
lthumb 5.56679 34.7925
rfemur -51.8485 -8.29676 15.4537
rtibia 62.0011
rfoot -11.6432 0.438984
rtoes -11.3239
lfemur -2.32799 -0.739003 -31.3816
ltibia 26.9125
lfoot 17.986 -11.5703
ltoes -11.2679
145
root 2.3856 17.3979 1.12315 32.8311 86.8415 16.2281
lowerback 13.3544 -0.910554 -9.02548
upperback -0.319134 -2.45068 2.00158
thorax -7.40069 -0.798317 7.76089
lowerneck -22.9081 -2.45924 -6.01786
upperneck 11.7188 -2.53351 6.32412
head 7.47927 -0.853365 2.75648
rclavicle 1.61016e-014 -8.15017e-015
rhumerus -55.4938 8.11029 -85.964
rradius 116.52
rwrist -9.37851
rhand -12.1469 30.4164
rfingers 7.12502
rthumb 13.9155 0.901978
lclavicle 1.61016e-014 -8.15017e-015
lhumerus -36.3419 -20.2314 100.022
lradius 110.487
lwrist 16.5957
lhand -21.663 4.76246
lfingers 7.12502
lthumb 4.73421 34.6896
rfemur -52.2694 -9.23664 15.7287
rtibia 58.9319
rfoot -10.4346 0.983159
rtoes -11.7131
lfemur -1.06444 -2.4667 -32.0934
ltibia 25.257
lfoot 22.9887 -10.8298
ltoes -11.5712
146
root 2.78054 17.4748 1.209 24.5441 87.6329 8.48494
lowerback 13.1076 -0.964292 -8.94646
upperback -0.310241 -2.47368 2.18435
thorax -7.24147 -0.819465 7.90723
lowerneck -22.4868 -2.58604 -5.66845
upperneck 11.7775 -2.83908 6.32147
head 7.4461 -0.9896 2.65949
rclavicle 4.61677e-014 9.93923e-016
rhumerus -55.2203 7.06931 -85.2861
rradius 116.181
rwrist -10.4639
rhand -10.4956 30.5425
rfingers 7.12502
rthumb 15.5064 1.14426
lclavicle 4.61677e-014 9.93923e-016
lhumerus -37.1326 -19.654 99.7097
lradius 108.94
lwrist 16.1693
lhand -22.5358 4.64139
lfingers 7.12502
lthumb 3.89142 34.5856
rfemur -51.3282 -9.17502 17.5228
rtibia 55.5323
rfoot -9.44269 0.785077
rtoes -13.7091
lfemur 0.595778 -3.88214 -30.8393
ltibia 24.0983
lfoot 26.7787 -11.6981
ltoes -11.0076
147
root 3.16272 17.5341 1.27412 34.5042 88.1921 18.8795
lowerback 12.8475 -0.989581 -9.82111
upperback -0.320975 -2.59203 2.53985
thorax -7.03217 -0.851168 8.81313
lowerneck -22.0718 -2.58472 -5.40894
upperneck 11.6862 -2.82489 5.67956
head 7.33162 -1.04251 2.40345
rclavicle -2.39536e-014 -1.80894e-014
rhumerus -54.6977 6.38218 -83.9899
rradius 115.83
rwrist -11.0134
rhand -9.47916 30.6829
rfingers 7.12502
rthumb 16.4852 1.36323
lclavicle -2.39536e-014 -1.80894e-014
lhumerus -37.6951 -18.6001 100.007
lradius 107.188
lwrist 15.0932
lhand -22.9626 4.65243
lfingers 7.12502
lthumb 3.47918 34.6038
rfemur -50.5485 -9.39948 18.3393
rtibia 52.3567
rfoot -8.44973 1.18687
rtoes -16.1198
lfemur 1.86843 -5.01417 -30.4379
ltibia 23.5022
lfoot 29.6487 -12.5742
ltoes -6.64064
148
root 3.53018 17.5767 1.31092 64.0539 88.3349 48.7908
lowerback 12.8022 -1.01702 -10.8816
upperback -0.440887 -2.76354 2.93815
thorax -7.03702 -0.883042 9.90752
lowerneck -21.9304 -2.80756 -6.0867
upperneck 11.904 -2.88799 5.36393
head 7.3877 -1.14028 2.40037
rclavicle -1.50082e-014 7.20594e-016
rhumerus -54.2303 6.18253 -82.2637
rradius 115.526
rwrist -11.0661
rhand -9.99224 30.8167
rfingers 7.12502
rthumb 15.9911 1.45673
lclavicle -1.50082e-014 7.20594e-016
lhumerus -38.2052 -17.2143 100.508
lradius 105.601
lwrist 14.2811
lhand -22.6241 4.7564
lfingers 7.12502
lthumb 3.80615 34.7022
rfemur -49.8528 -10.1035 18.6371
rtibia 49.2877
rfoot -7.65341 2.5341
rtoes -16.5814
lfemur 2.71682 -5.96269 -30.6305
ltibia 23.6692
lfoot 31.4518 -13.9279
ltoes -1.41258
